<mxfile host="app.diagrams.net" modified="2023-06-12T05:53:58.550Z" agent="Mozilla/5.0 (X11; Linux x86_64) AppleWebKit/537.36 (KHTML, like Gecko) Chrome/111.0.0.0 Safari/537.36" version="21.2.3" etag="U3779azEicgOk8Ojk1H1" type="github">
  <diagram name="Page-1" id="YNY0qcUzTQaA7nDu5y5U">
    <mxGraphModel>
      <root>
        <mxCell id="0" />
        <mxCell id="1" parent="0" />
      </root>
    </mxGraphModel>
  </diagram>
</mxfile>
